<svg xmlns="http://www.w3.org/2000/svg" viewBox="0 0 400 260" role="img"><rect width="400" height="260" fill="#3B4054"/><path d="M0 0h400v40q-60 20-120 8t-160 10T0 40z" fill="#2A2E3E"/>
<path d="M150 0h100l60 260H90z" fill="#FFE8A8" opacity=".22"/><rect y="220" width="400" height="40" fill="#5A5F73"/>
<path d="M20 90h40v24H20zM300 70h50v26h-50zM340 140h44v24h-44zM30 160h36v22H30z" fill="#4A4F63"/><g transform="translate(70 196) scale(1 1)"><ellipse cx="34" cy="16" rx="42" ry="20" fill="#E0A94A"/><path d="M72 10q20-8 18 16" stroke="#E0A94A" stroke-width="5" fill="none"/><circle cx="0" cy="0" r="30" fill="#B8652A"/><circle cx="0" cy="2" r="19" fill="#EDBE5C"/><circle cx="-7" cy="-2" r="2.6" fill="#1B2238"/><circle cx="7" cy="-2" r="2.6" fill="#1B2238"/><path d="M-4 7h8l-4 5z" fill="#6B421E"/><path d="M-6 14q6 4 12 0" stroke="#6B421E" stroke-width="2" fill="none"/></g><g transform="translate(330 196) scale(-1 1)"><ellipse cx="34" cy="16" rx="42" ry="20" fill="#E0A94A"/><path d="M72 10q20-8 18 16" stroke="#E0A94A" stroke-width="5" fill="none"/><circle cx="0" cy="0" r="30" fill="#B8652A"/><circle cx="0" cy="2" r="19" fill="#EDBE5C"/><circle cx="-7" cy="-2" r="2.6" fill="#1B2238"/><circle cx="7" cy="-2" r="2.6" fill="#1B2238"/><path d="M-4 7h8l-4 5z" fill="#6B421E"/><path d="M-6 14q6 4 12 0" stroke="#6B421E" stroke-width="2" fill="none"/></g>
<g transform="translate(200 176)"><path d="M-22 44q-4-40 22-46 26 6 22 46z" fill="#4C8FE0"/><circle cx="0" cy="-12" r="11" fill="#E3B48A"/><path d="M-11 -14a11 11 0 0 1 22 0q-11-6-22 0z" fill="#4A3322"/><path d="M-6 6l6 -10 6 10" stroke="#E3B48A" stroke-width="6" stroke-linecap="round" fill="none"/></g></svg>