<svg xmlns="http://www.w3.org/2000/svg" viewBox="0 0 400 260" role="img"><rect width="400" height="260" fill="#CFE3F5"/><rect y="222" width="400" height="38" fill="#D9C19A"/>
<path d="M180 230c6-50 0-90-10-120h40c-10 30-16 70-10 120z" fill="#7A4E26"/><path d="M188 150c-30-10-50-20-70-40M204 140c30-12 50-24 80-30" stroke="#7A4E26" stroke-width="12" stroke-linecap="round" fill="none"/>
<g fill="#46A96A"><circle cx="120" cy="90" r="46"/><circle cx="190" cy="62" r="56"/><circle cx="270" cy="92" r="48"/><circle cx="220" cy="112" r="34"/></g><g fill="#3A8F58"><circle cx="150" cy="116" r="30"/><circle cx="300" cy="118" r="26"/></g>
<g transform="translate(270 106)"><path d="M-14 0q14-8 28 0v26h-28z" fill="#C8445A"/><circle cx="0" cy="-12" r="11" fill="#E3B48A"/><path d="M-11 -14a11 11 0 0 1 22 0q-11-6-22 0z" fill="#4A3322"/><circle cx="4" cy="-12" r="1.8" fill="#1B2238"/></g>
<path d="M256 132l-18 4" stroke="#E3B48A" stroke-width="6" stroke-linecap="round"/><circle cx="30" cy="236" r="13" fill="#C8445A"/><circle cx="64" cy="232" r="13" fill="#4C8FE0"/><circle cx="98" cy="238" r="13" fill="#E8A93A"/><circle cx="240" cy="236" r="13" fill="#46A96A"/><circle cx="276" cy="230" r="13" fill="#8A5A2B"/><circle cx="312" cy="238" r="13" fill="#C8445A"/><circle cx="350" cy="232" r="13" fill="#4C8FE0"/><circle cx="384" cy="238" r="13" fill="#E8A93A"/></svg>